<svg width="112" height="100" viewBox="0 0 112 100" fill="none" xmlns="http://www.w3.org/2000/svg">
<path d="M111.204 35.7156C111.204 36.736 110.768 37.7564 110.04 38.4853L78.3089 70.2649C77.5811 70.9938 76.5622 71.4311 75.5433 71.4311C74.5244 71.4311 73.5056 70.9938 72.7778 70.2649C72.05 69.536 71.6133 68.5155 71.6133 67.4951V51.6053H57.7855C53.71 51.6053 50.0711 51.7511 46.8689 52.0427C43.6666 52.3342 40.4644 52.7716 37.2622 53.3547C34.06 53.9378 31.2944 54.8124 28.9655 55.9787C26.6367 57.1449 24.4533 58.6027 22.4155 60.352C20.3778 62.1013 18.7767 64.1422 17.4667 66.6205C16.1567 69.0987 15.1378 71.8685 14.41 75.2213C13.6822 78.5742 13.3911 82.2187 13.3911 86.4462C13.3911 88.7787 13.5367 91.2569 13.6822 94.0267C13.6822 94.3182 13.6822 94.7556 13.8278 95.4844C13.9733 96.2133 13.9733 96.7965 13.9733 97.088C13.9733 97.6711 13.8278 98.2542 13.3911 98.6916C13.1 99.1289 12.5178 99.2747 11.9355 99.2747C11.2078 99.2747 10.6256 98.9831 10.1889 98.2542C9.89778 97.8169 9.60666 97.3796 9.31555 96.9422C9.02444 96.3591 8.73332 95.776 8.4422 95.0471C8.15109 94.3182 7.85999 93.8809 7.85999 93.5894C2.61999 81.7814 0 72.4516 0 65.6C0 57.4364 1.16443 50.4391 3.34776 44.8995C10.0433 28.2809 28.0922 19.8258 57.4944 19.8258H71.3222V3.936C71.3222 2.91555 71.7589 1.89512 72.4866 1.16623C73.2144 0.437338 74.2333 0 75.2522 0C76.2711 0 77.29 0.437338 78.0177 1.16623L109.749 32.9458C110.913 33.6747 111.204 34.5493 111.204 35.7156Z" fill="#0093DD"/>
</svg>
