<svg width="94" height="84" viewBox="0 0 94 84" fill="none" xmlns="http://www.w3.org/2000/svg">
<path d="M2.13953e-07 30.2203C2.13953e-07 31.0837 0.369133 31.9471 0.984316 32.5639L27.8063 59.4538C28.4215 60.0705 29.2827 60.4405 30.144 60.4405C31.0052 60.4405 31.8665 60.0705 32.4817 59.4538C33.0969 58.837 33.466 57.9735 33.466 57.1101V43.6652H45.1545C48.5995 43.6652 51.6754 43.7886 54.3822 44.0353C57.089 44.282 59.7958 44.652 62.5026 45.1454C65.2095 45.6388 67.5471 46.3788 69.5157 47.3656C71.4843 48.3524 73.3298 49.5859 75.0524 51.0661C76.7749 52.5462 78.1283 54.2731 79.2356 56.3701C80.3429 58.467 81.2042 60.8106 81.8194 63.6476C82.4346 66.4846 82.6806 69.5683 82.6806 73.1454C82.6806 75.1189 82.5576 77.2159 82.4346 79.5595C82.4346 79.8062 82.4346 80.1762 82.3115 80.7929C82.1885 81.4097 82.1885 81.9031 82.1885 82.1498C82.1885 82.6432 82.3115 83.1366 82.6806 83.5066C82.9267 83.8767 83.4189 84 83.911 84C84.5262 84 85.0183 83.7533 85.3874 83.1366C85.6335 82.7665 85.8796 82.3965 86.1257 82.0264C86.3717 81.533 86.6178 81.0397 86.8639 80.4229C87.11 79.8062 87.356 79.4361 87.356 79.1894C91.7853 69.1982 94 61.304 94 55.5066C94 48.5991 93.0157 42.6784 91.1702 37.9912C85.5105 23.9295 70.2539 16.7753 45.4005 16.7753H33.712V3.33039C33.712 2.46696 33.3429 1.60353 32.7278 0.986788C32.1126 0.370048 31.2513 0 30.3901 0C29.5288 0 28.6676 0.370048 28.0524 0.986788L1.23037 27.8767C0.246074 28.4934 2.13953e-07 29.2335 2.13953e-07 30.2203Z" fill="#0093DD"/>
</svg>
